<svg width="17" height="30" viewBox="0 0 17 30" fill="none" xmlns="http://www.w3.org/2000/svg">
<path d="M16.0305 13.6202L2.09796 0.345238C1.86549 0.123626 1.55664 -6.4962e-07 1.23546 -6.63659e-07C0.914285 -6.77698e-07 0.605433 0.123626 0.372963 0.345238L0.357962 0.360238C0.244875 0.467671 0.154825 0.596987 0.0932903 0.740319C0.0317573 0.883652 2.47502e-05 1.038 2.47433e-05 1.19399C2.47365e-05 1.34997 0.0317573 1.50432 0.0932903 1.64766C0.154825 1.79099 0.244875 1.9203 0.357962 2.02774L13.478 14.5277L0.35796 27.0227C0.244874 27.1302 0.154824 27.2595 0.0932891 27.4028C0.0317562 27.5462 2.35847e-05 27.7005 2.35779e-05 27.8565C2.35711e-05 28.0125 0.0317561 28.1668 0.0932891 28.3102C0.154824 28.4535 0.244874 28.5828 0.35796 28.6902L0.372962 28.7052C0.605432 28.9269 0.914283 29.0505 1.23546 29.0505C1.55664 29.0505 1.86549 28.9269 2.09796 28.7052L16.0305 15.4302C16.153 15.3135 16.2505 15.1731 16.3172 15.0175C16.3838 14.862 16.4182 14.6945 16.4182 14.5252C16.4182 14.356 16.3838 14.1885 16.3172 14.033C16.2505 13.8774 16.153 13.737 16.0305 13.6202Z" fill="#2C2C2C"/>
</svg>
