<svg width="17" height="30" viewBox="0 0 17 30" fill="none" xmlns="http://www.w3.org/2000/svg">
<path d="M0.387751 15.4303L14.3203 28.7053C14.5527 28.9269 14.8616 29.0505 15.1828 29.0505C15.5039 29.0505 15.8128 28.9269 16.0452 28.7053L16.0603 28.6903C16.1733 28.5829 16.2634 28.4535 16.3249 28.3102C16.3865 28.1669 16.4182 28.0125 16.4182 27.8565C16.4182 27.7006 16.3865 27.5462 16.3249 27.4029C16.2634 27.2595 16.1733 27.1302 16.0603 27.0228L2.94025 14.5228L16.0603 2.0278C16.1733 1.92037 16.2634 1.79105 16.3249 1.64772C16.3865 1.50438 16.4182 1.35003 16.4182 1.19405C16.4182 1.03807 16.3865 0.883715 16.3249 0.740381C16.2634 0.597048 16.1733 0.467732 16.0603 0.360298L16.0453 0.345299C15.8128 0.123686 15.5039 5.74053e-05 15.1828 5.74015e-05C14.8616 5.73977e-05 14.5527 0.123686 14.3203 0.345299L0.387751 13.6203C0.26522 13.737 0.167672 13.8775 0.101021 14.033C0.0343686 14.1886 1.7523e-07 14.3561 1.73212e-07 14.5253C1.71194e-07 14.6945 0.0343686 14.862 0.101021 15.0176C0.167672 15.1731 0.26522 15.3136 0.387751 15.4303Z" fill="#2C2C2C"/>
</svg>
