<svg width="22" height="28" viewBox="0 0 22 28" fill="none" xmlns="http://www.w3.org/2000/svg">
<path d="M10.0667 0C12.0889 0 13.8167 0.705556 15.25 2.11667C16.6833 3.52778 17.4 5.24444 17.4 7.26667C17.4 8.42222 17.15 9.51111 16.65 10.5333C16.15 11.5556 15.4444 12.4222 14.5333 13.1333H13.4V11.4667C14.0444 10.9556 14.5389 10.3333 14.8833 9.6C15.2278 8.86667 15.4 8.08889 15.4 7.26667C15.4 5.8 14.8778 4.55556 13.8333 3.53333C12.7889 2.51111 11.5333 2 10.0667 2C8.6 2 7.34444 2.51111 6.3 3.53333C5.25556 4.55556 4.73333 5.8 4.73333 7.26667C4.73333 8.08889 4.90556 8.86667 5.25 9.6C5.59444 10.3333 6.08889 10.9556 6.73333 11.4667V13.8667C5.48889 13.2222 4.51111 12.3111 3.8 11.1333C3.08889 9.95556 2.73333 8.66667 2.73333 7.26667C2.73333 5.24444 3.45 3.52778 4.88333 2.11667C6.31667 0.705556 8.04444 0 10.0667 0ZM8.8 28C8.42222 28 8.06667 27.9278 7.73333 27.7833C7.4 27.6389 7.11111 27.4444 6.86667 27.2L0 20.3333L1.86667 18.4C2.17778 18.0889 2.52778 17.85 2.91667 17.6833C3.30556 17.5167 3.71111 17.4889 4.13333 17.6L6.73333 18.2V7.33333C6.73333 6.4 7.05556 5.61111 7.7 4.96667C8.34444 4.32222 9.13333 4 10.0667 4C11 4 11.7889 4.32222 12.4333 4.96667C13.0778 5.61111 13.4 6.4 13.4 7.33333V13.0667H14.2667C14.3778 13.0667 14.4778 13.0889 14.5667 13.1333C14.6556 13.1778 14.7556 13.2222 14.8667 13.2667L19.8 15.6667C20.3333 15.9111 20.7278 16.3056 20.9833 16.85C21.2389 17.3944 21.3111 17.9556 21.2 18.5333L20 25.8C19.8889 26.4444 19.5778 26.9722 19.0667 27.3833C18.5556 27.7944 17.9778 28 17.3333 28H8.8ZM8.53333 26H17.9L19.3333 17.7L13.2333 14.6667H11.4V7.33333C11.4 6.93333 11.2778 6.61111 11.0333 6.36667C10.7889 6.12222 10.4667 6 10.0667 6C9.66667 6 9.34444 6.12222 9.1 6.36667C8.85555 6.61111 8.73333 6.93333 8.73333 7.33333V20.6333L3.6 19.5333L2.83333 20.3L8.53333 26ZM17.9 26H8.53333H17.9Z" fill="#7EB101"/>
</svg>
