<svg width="24" height="17" viewBox="0 0 24 17" fill="none" xmlns="http://www.w3.org/2000/svg">
<path d="M0 1.16667C0 0.857247 0.122916 0.560501 0.341709 0.341709C0.560501 0.122917 0.857247 0 1.16667 0H22.1667C22.4761 0 22.7728 0.122917 22.9916 0.341709C23.2104 0.560501 23.3333 0.857247 23.3333 1.16667C23.3333 1.47609 23.2104 1.77283 22.9916 1.99162C22.7728 2.21042 22.4761 2.33333 22.1667 2.33333H1.16667C0.857247 2.33333 0.560501 2.21042 0.341709 1.99162C0.122916 1.77283 0 1.47609 0 1.16667ZM0 8.204C0 7.89458 0.122916 7.59783 0.341709 7.37904C0.560501 7.16025 0.857247 7.03733 1.16667 7.03733H22.1667C22.4761 7.03733 22.7728 7.16025 22.9916 7.37904C23.2104 7.59783 23.3333 7.89458 23.3333 8.204C23.3333 8.51342 23.2104 8.81017 22.9916 9.02896C22.7728 9.24775 22.4761 9.37067 22.1667 9.37067H1.16667C0.857247 9.37067 0.560501 9.24775 0.341709 9.02896C0.122916 8.81017 0 8.51342 0 8.204ZM1.16667 14.0747C0.857247 14.0747 0.560501 14.1976 0.341709 14.4164C0.122916 14.6352 0 14.9319 0 15.2413C0 15.5508 0.122916 15.8475 0.341709 16.0663C0.560501 16.2851 0.857247 16.408 1.16667 16.408H22.1667C22.4761 16.408 22.7728 16.2851 22.9916 16.0663C23.2104 15.8475 23.3333 15.5508 23.3333 15.2413C23.3333 14.9319 23.2104 14.6352 22.9916 14.4164C22.7728 14.1976 22.4761 14.0747 22.1667 14.0747H1.16667Z" fill="#7EB101"/>
</svg>
