<!-- Generated by IcoMoon.io -->
<svg version="1.1" xmlns="http://www.w3.org/2000/svg" width="45" height="32" viewBox="0 0 45 32">
<rect fill="#fff" x="0" y="0" width="45" height="32"></rect>
<path fill="#7eb101" d="M0 2.196c0-0.582 0.231-1.141 0.643-1.553s0.97-0.643 1.553-0.643h39.529c0.582 0 1.141 0.231 1.553 0.643s0.643 0.97 0.643 1.553c0 0.582-0.231 1.141-0.643 1.553s-0.97 0.643-1.553 0.643h-39.529c-0.582 0-1.141-0.231-1.553-0.643s-0.643-0.97-0.643-1.553zM0 15.443c0-0.582 0.231-1.141 0.643-1.553s0.97-0.643 1.553-0.643h39.529c0.582 0 1.141 0.231 1.553 0.643s0.643 0.97 0.643 1.553c0 0.582-0.231 1.141-0.643 1.553s-0.97 0.643-1.553 0.643h-39.529c-0.582 0-1.141-0.231-1.553-0.643s-0.643-0.97-0.643-1.553zM2.196 26.494c-0.582 0-1.141 0.231-1.553 0.643s-0.643 0.97-0.643 1.553c0 0.583 0.231 1.141 0.643 1.553s0.97 0.643 1.553 0.643h39.529c0.582 0 1.141-0.231 1.553-0.643s0.643-0.97 0.643-1.553c0-0.582-0.231-1.141-0.643-1.553s-0.97-0.643-1.553-0.643h-39.529z"></path>
</svg>
